<svg
                    className="h-6 w-6"
                    fill="currentColor"
                    viewBox="0 0 24 24"
                    aria-hidden="true"
                  >
                    <path
                      fillRule="evenodd"
                      d="M12 2a10 10 0 00-3.162 19.478c.5.092.683-.217.683-.482v-1.693c-2.782.604-3.369-1.343-3.369-1.343-.454-1.157-1.11-1.465-1.11-1.465-.909-.62.069-.607.069-.607 1.004.071 1.532 1.032 1.532 1.032.893 1.532 2.341 1.09 2.91.833.091-.647.35-1.09.636-1.34-2.22-.253-4.555-1.11-4.555-4.944 0-1.092.39-1.986 1.029-2.686-.103-.253-.446-1.274.098-2.656 0 0 .84-.269 2.75 1.025A9.579 9.579 0 0112 6.844a9.51 9.51 0 012.51.337c1.91-1.294 2.75-1.025 2.75-1.025.544 1.382.201 2.403.099 2.656.64.7 1.028 1.594 1.028 2.686 0 3.842-2.337 4.687-4.565 4.937.36.31.682.921.682 1.857v2.754c0 .267.18.577.688.48A10.001 10.001 0 0012 2z"
                      clipRule="evenodd"
                    />
                  </svg>